<svg width="138" height="120" viewBox="0 0 138 120" fill="none" xmlns="http://www.w3.org/2000/svg">
<path d="M9.35773 108.726H22.6832C22.5345 112.082 21.4452 114.799 19.414 116.879C17.3827 118.96 14.8092 120 11.6934 120C10.076 120 8.58473 119.691 7.21948 119.071C5.85304 118.451 4.62931 117.531 3.54472 116.312C2.62781 115.298 1.93211 114.145 1.45879 112.85C0.985472 111.557 0.75 110.172 0.75 108.697C0.75 107.192 1.03542 105.765 1.60745 104.417C2.17947 103.069 3.0167 101.854 4.1227 100.771C5.16804 99.7288 6.33587 98.9482 7.62739 98.4318C8.9189 97.9154 10.3543 97.6572 11.9324 97.6572C14.1111 97.6572 16.0222 98.1665 17.6634 99.185C19.3046 100.204 20.5461 101.652 21.3833 103.532H17.548C16.8369 102.617 15.9878 101.928 14.9995 101.466C14.0112 101.003 12.9112 100.772 11.6958 100.772C10.679 100.772 9.71094 100.964 8.79284 101.348C7.87356 101.731 7.05893 102.288 6.34776 103.016C5.60805 103.774 5.03008 104.654 4.61504 105.658C4.19999 106.661 3.99187 107.684 3.99187 108.728C3.99187 109.85 4.17978 110.91 4.55439 111.908C4.929 112.906 5.46772 113.77 6.16819 114.498C6.90908 115.266 7.76177 115.862 8.72982 116.284C9.69786 116.707 10.6849 116.919 11.691 116.919C13.3298 116.919 14.7759 116.483 16.0294 115.613C17.2828 114.742 18.3139 113.456 19.1238 111.755H9.35298V108.726H9.35773Z" fill="#F5F5F5"/>
<path d="M39.7643 119.572V117.58C39.0175 118.357 38.1838 118.945 37.2645 119.344C36.3453 119.742 35.3641 119.941 34.3224 119.941C31.8832 119.941 29.8579 119.127 28.2453 117.499C26.6327 115.872 25.8264 113.832 25.8264 111.382C25.8264 110.241 26.0274 109.158 26.4305 108.135C26.8337 107.112 27.4093 106.212 28.1561 105.434C28.9731 104.578 29.8651 103.946 30.8331 103.538C31.8012 103.129 32.9048 102.925 34.144 102.925C35.2547 102.925 36.2775 103.121 37.2122 103.515C38.1458 103.909 38.9973 104.504 39.7643 105.301V103.338H42.7148V119.571H39.7643V119.572ZM28.8495 111.353C28.8495 112.996 29.393 114.372 30.4799 115.485C31.5657 116.597 32.8965 117.153 34.4698 117.153C35.9052 117.153 37.1718 116.595 38.2683 115.478C39.3636 114.362 39.913 113.055 39.913 111.56C39.913 109.965 39.3695 108.6 38.2825 107.464C37.1956 106.328 35.9052 105.76 34.4116 105.76C32.8774 105.76 31.5669 106.302 30.4811 107.383C29.3929 108.466 28.8495 109.789 28.8495 111.353Z" fill="#F5F5F5"/>
<path d="M62.8046 114.038C62.1268 115.996 61.1183 117.479 59.7816 118.488C58.4437 119.497 56.8168 120 54.8986 120C53.6891 120 52.5926 119.791 51.6091 119.373C50.6256 118.955 49.7361 118.327 48.9393 117.492C48.1817 116.695 47.5895 115.768 47.1625 114.71C46.7344 113.653 46.5215 112.573 46.5215 111.471C46.5215 110.34 46.7154 109.279 47.1043 108.291C47.492 107.302 48.0652 106.4 48.8227 105.583C49.6588 104.688 50.5971 104.008 51.64 103.547C52.6818 103.084 53.7985 102.853 54.9878 102.853C56.8465 102.853 58.4591 103.367 59.8256 104.395C61.192 105.423 62.1862 106.868 62.8046 108.726H59.6044C59.093 107.733 58.4342 106.99 57.6279 106.498C56.8216 106.005 55.8583 105.76 54.7368 105.76C53.2907 105.76 52.0646 106.306 51.0573 107.398C50.0488 108.491 49.5458 109.839 49.5458 111.441C49.5458 113.064 50.0572 114.417 51.0799 115.5C52.1027 116.583 53.3751 117.123 54.8998 117.123C55.9225 117.123 56.8465 116.855 57.6731 116.319C58.4984 115.783 59.143 115.023 59.6056 114.039H62.8046V114.038Z" fill="#F5F5F5"/>
<path d="M69.1779 112.532C69.4228 113.89 70.0353 114.989 71.0141 115.83C71.9928 116.672 73.1559 117.092 74.5021 117.092C75.4654 117.092 76.343 116.861 77.1351 116.398C77.9259 115.936 78.5586 115.282 79.0307 114.435H82.3202C81.5733 116.235 80.528 117.613 79.1853 118.567C77.8427 119.521 76.2824 119.999 74.5021 119.999C73.3022 119.999 72.2057 119.787 71.2126 119.364C70.2184 118.942 69.3194 118.307 68.5131 117.461C67.7555 116.663 67.1633 115.736 66.7363 114.679C66.3082 113.622 66.0953 112.542 66.0953 111.44C66.0953 110.299 66.2892 109.232 66.6781 108.238C67.0658 107.245 67.639 106.339 68.3965 105.523C69.2028 104.638 70.1126 103.971 71.1258 103.523C72.1379 103.075 73.2451 102.852 74.445 102.852C75.8709 102.852 77.1957 103.184 78.4206 103.847C79.6444 104.511 80.6552 105.439 81.452 106.629C81.9241 107.367 82.2726 108.177 82.4986 109.057C82.7245 109.937 82.8375 110.944 82.8375 112.074V112.531H69.1779V112.532ZM79.6349 109.906C79.271 108.568 78.6407 107.532 77.7475 106.799C76.852 106.067 75.7805 105.7 74.5318 105.7C73.2534 105.7 72.145 106.076 71.2055 106.829C70.266 107.582 69.6203 108.608 69.2659 109.906H79.6349Z" fill="#F5F5F5"/>
<path d="M86.6715 119.571V98.085H89.564V119.571H86.6715Z" fill="#F5F5F5"/>
<path d="M96.5101 112.532C96.755 113.89 97.3675 114.989 98.3463 115.83C99.325 116.672 100.488 117.092 101.834 117.092C102.798 117.092 103.675 116.861 104.467 116.398C105.258 115.936 105.891 115.282 106.363 114.435H109.652C108.906 116.235 107.86 117.613 106.518 118.567C105.175 119.521 103.615 119.999 101.834 119.999C100.634 119.999 99.5379 119.787 98.5449 119.364C97.5507 118.942 96.6516 118.307 95.8453 117.461C95.0877 116.663 94.4955 115.736 94.0686 114.679C93.6404 113.622 93.4276 112.542 93.4276 111.44C93.4276 110.299 93.6214 109.232 94.0103 108.238C94.398 107.245 94.9712 106.339 95.7287 105.523C96.535 104.638 97.4448 103.971 98.458 103.523C99.4701 103.075 100.577 102.852 101.777 102.852C103.203 102.852 104.528 103.184 105.753 103.847C106.977 104.511 107.987 105.439 108.784 106.629C109.256 107.367 109.605 108.177 109.831 109.057C110.057 109.937 110.17 110.944 110.17 112.074V112.531H96.5101V112.532ZM106.968 109.906C106.604 108.568 105.974 107.532 105.081 106.799C104.185 106.067 103.114 105.7 101.865 105.7C100.587 105.7 99.4784 106.076 98.5389 106.829C97.5994 107.582 96.9536 108.608 96.5993 109.906H106.968Z" fill="#F5F5F5"/>
<path d="M123.783 119.573H112.573V117.212L120.404 105.996H113.516V103.339H123.34V106.335L116.023 116.828H123.782V119.573H123.783Z" fill="#F5F5F5"/>
<path d="M137.25 119.573H126.04V117.212L133.871 105.996H126.983V103.339H136.806V106.335L129.49 116.828H137.249V119.573H137.25Z" fill="#F5F5F5"/>
<path d="M29.3049 15.7369C28.0788 10.4956 32.8381 5.7433 37.8734 7.18183L73.848 17.4622L109.823 27.7425C114.858 29.181 116.391 35.7324 112.583 39.5351L85.3729 66.7018L58.163 93.8686C54.3551 97.6713 48.0616 95.8723 46.8343 90.631L38.0696 53.1839L29.3049 15.7369Z" fill="#EC1C24"/>
<path d="M49.163 93.9624C47.843 93.527 46.4373 93.2557 45.2171 92.6262C40.6671 90.2787 38.1209 86.4985 38.0044 81.3524C37.87 75.4519 37.958 69.5479 37.9568 63.645C37.9544 46.9145 37.9711 30.1851 37.9437 13.4546C37.939 10.1861 38.7239 7.2091 40.8645 4.71159C45.3515 -0.522568 52.0374 -1.46612 58.0407 2.23432C72.5447 11.1761 87.0451 20.1226 101.547 29.0679C105.237 31.3441 108.934 33.6095 112.615 35.9024C121.277 41.2984 121.286 52.8673 112.6 58.224C101.554 65.0359 90.4737 71.7895 79.4078 78.5693C77.2731 79.877 75.1492 81.2048 73.0002 82.4899C71.2782 83.5191 69.4919 83.2966 68.2361 81.9604C66.6151 80.2351 67.0195 77.5687 69.1625 76.2265C72.113 74.3799 75.0944 72.5832 78.0628 70.7651C88.2177 64.5445 98.3727 58.3252 108.526 52.1022C111.126 50.509 112.087 48.5351 111.554 45.8329C111.209 44.0838 110.049 42.957 108.595 42.0623C101.082 37.4337 93.5717 32.8004 86.0604 28.1683C75.3775 21.5813 64.691 15.0014 54.0175 8.40132C52.2265 7.29357 50.3915 6.96874 48.459 7.90515C46.3647 8.91891 45.3063 10.6394 45.3027 12.9632C45.2908 21.4659 45.298 29.9686 45.298 38.4713C45.298 52.5103 45.2956 66.5482 45.3004 80.5873C45.3016 83.7833 47.221 86.0928 50.2357 86.5675C51.4559 86.7591 52.5131 86.3129 53.5406 85.7382C54.9083 84.9731 56.2818 84.9148 57.6066 85.806C59.8995 87.3481 59.7711 90.713 57.2844 92.0373C55.9025 92.7738 54.3552 93.2009 52.8818 93.7649C52.6856 93.8399 52.4822 93.8982 52.2824 93.9648C51.2418 93.9624 50.2024 93.9624 49.163 93.9624Z" fill="#F5F5F5"/>
<path d="M70.0091 62.3548C68.0552 62.5619 66.3034 61.1447 66.0965 59.1886L63.4754 34.4064C63.2685 32.4515 64.6849 30.6988 66.64 30.4918C68.5939 30.2847 70.3457 31.7018 70.5526 33.658L73.1737 58.4402C73.3794 60.3951 71.963 62.1478 70.0091 62.3548Z" fill="#F5F5F5"/>
<path d="M52.4001 48.1104C52.1931 46.1554 53.6095 44.4028 55.5646 44.1957L80.3342 41.5733C82.2881 41.3663 84.0398 42.7834 84.2468 44.7395C84.4537 46.6944 83.0373 48.4471 81.0822 48.6541L56.3127 51.2765C54.3599 51.4824 52.607 50.0653 52.4001 48.1104Z" fill="#F5F5F5"/>
</svg>
