<svg width="64" height="64" viewBox="0 0 64 64" fill="none" xmlns="http://www.w3.org/2000/svg">
<path d="M38.0654 34.2281C39.3478 31.1405 39.7233 27.7051 39.039 24.3171L36.6857 24.7927C37.6621 29.6217 36.1711 34.5785 32.694 38.0557C29.9291 40.8206 26.2572 42.3422 22.3521 42.3422C18.447 42.3422 14.7696 40.8206 12.0074 38.0557C6.30501 32.3533 6.30501 23.0709 12.0074 17.3655L10.3106 15.6687C3.67357 22.3057 3.67357 33.1096 10.3106 39.7521C13.5262 42.9676 17.8041 44.7396 22.3523 44.7396C24.6304 44.7396 26.8419 44.2945 28.8864 43.4433L39.5516 54.1085C40.8172 55.3741 42.4835 56.0084 44.1496 56.0084C45.813 56.0084 47.4821 55.3742 48.7477 54.1057C51.2846 51.5689 51.2846 47.4436 48.7477 44.9096L38.0661 34.2252L38.0654 34.2281ZM47.05 52.4146C45.4979 53.9667 42.7941 53.9667 41.2448 52.4146L31.1222 42.292C32.296 41.5855 33.3976 40.7482 34.3878 39.7524C35.3809 38.7593 36.2293 37.6633 36.9358 36.4923L47.0527 46.6091C48.6521 48.2086 48.6521 50.8122 47.0527 52.4117L47.05 52.4146Z" fill="#C9C9C9"/>
<path d="M21.5089 21.644H46.3321V19.2462L21.5089 19.2434C19.0694 19.2434 17.0861 17.2573 17.0861 14.8206C17.0861 12.3839 19.0722 10.3978 21.5089 10.3978H49.0638V8L21.5089 8.00278C17.7481 8.00278 14.6883 11.0626 14.6883 14.8234C14.6883 18.5841 17.7481 21.644 21.5089 21.644Z" fill="#C9C9C9"/>
<path d="M22.0711 13.6227H40.3024V16.0205H22.0711V13.6227Z" fill="#C9C9C9"/>
<path d="M43.033 13.6224H45.8648V16.0202H43.033V13.6224Z" fill="#C9C9C9"/>
<path d="M48.6002 13.6224H51.4319V16.0202H48.6002V13.6224Z" fill="#C9C9C9"/>
</svg>
