<svg width="350" height="58" viewBox="0 0 350 58" fill="none" xmlns="http://www.w3.org/2000/svg">
<path d="M22.0711 29.1581H56.239C55.8578 37.7423 53.0646 44.6949 47.8563 50.0158C42.648 55.3399 36.0493 58.0003 28.06 58.0003C23.9129 58.0003 20.089 57.2089 16.5884 55.6229C13.0847 54.037 9.94694 51.684 7.16595 48.5638C4.81491 45.9703 3.03105 43.0206 1.81741 39.7087C0.603776 36.3998 0 32.8566 0 29.082C0 25.2313 0.731848 21.5815 2.19858 18.1326C3.66531 14.6837 5.81205 11.5757 8.64794 8.80562C11.3283 6.13904 14.3227 4.14214 17.6343 2.82103C20.9459 1.49992 24.6265 0.839355 28.6729 0.839355C34.2593 0.839355 39.1596 2.14219 43.3677 4.74789C47.5758 7.35359 50.7593 11.0582 52.906 15.8678H43.0719C41.2484 13.5269 39.0712 11.7644 36.5372 10.5833C34.0032 9.3992 31.1825 8.80867 28.0661 8.80867C25.4589 8.80867 22.9768 9.29875 20.6227 10.282C18.2655 11.2622 16.1767 12.6868 14.3532 14.5497C12.4565 16.4888 10.9746 18.7383 9.91035 21.3075C8.84613 23.8736 8.3125 26.4915 8.3125 29.1611C8.3125 32.0316 8.79431 34.7439 9.75485 37.2978C10.7154 39.8518 12.0967 42.0618 13.8928 43.9247C15.7925 45.8881 17.9789 47.4132 20.4611 48.4938C22.9432 49.5744 25.4742 50.1163 28.0539 50.1163C32.2559 50.1163 35.9639 49.0022 39.1779 46.777C42.3919 44.5487 45.0357 41.2581 47.1123 36.9051H22.0589V29.1581H22.0711Z" fill="#F5F5F5"/>
<path d="M100.037 56.9048V51.8091C98.1219 53.7969 95.9844 55.3006 93.6272 56.3204C91.2701 57.3401 88.7544 57.8485 86.0832 57.8485C79.829 57.8485 74.636 55.7663 70.501 51.6021C66.3661 47.4379 64.2987 42.2204 64.2987 35.9527C64.2987 33.0335 64.814 30.2634 65.8478 27.6455C66.8815 25.0277 68.3574 22.7263 70.2723 20.7355C72.3672 18.5438 74.6543 16.9275 77.1364 15.8834C79.6186 14.8393 82.4484 14.3157 85.6258 14.3157C88.4739 14.3157 91.0963 14.8179 93.4931 15.8255C95.8868 16.8331 98.0701 18.3551 100.037 20.3946V15.3719H107.602V56.9018H100.037V56.9048ZM72.0501 35.8766C72.0501 40.0804 73.4437 43.6024 76.2308 46.4485C79.0148 49.2947 82.427 50.7163 86.4613 50.7163C90.1418 50.7163 93.3894 49.2886 96.2009 46.4303C99.0093 43.575 100.418 40.2326 100.418 36.4062C100.418 32.3272 99.0246 28.8357 96.2375 25.9287C93.4504 23.0216 90.1418 21.5696 86.3119 21.5696C82.3782 21.5696 79.0178 22.9546 76.2338 25.7217C73.4437 28.4918 72.0501 31.8767 72.0501 35.8766Z" fill="#F5F5F5"/>
<path d="M159.114 42.7463C157.376 47.7568 154.79 51.5497 151.363 54.131C147.933 56.7124 143.761 58 138.842 58C135.741 58 132.93 57.4642 130.408 56.3958C127.886 55.3273 125.605 53.72 123.562 51.5831C121.62 49.5436 120.101 47.1723 119.007 44.4662C117.909 41.7631 117.363 38.9991 117.363 36.1803C117.363 33.2854 117.86 30.5732 118.857 28.0436C119.851 25.514 121.321 23.2066 123.263 21.1153C125.407 18.8262 127.813 17.0881 130.487 15.907C133.159 14.7229 136.022 14.1323 139.071 14.1323C143.837 14.1323 147.972 15.4473 151.476 18.0774C154.98 20.7074 157.529 24.4029 159.114 29.1577H150.909C149.597 26.6159 147.908 24.7165 145.841 23.4562C143.773 22.196 141.303 21.5689 138.428 21.5689C134.72 21.5689 131.576 22.9661 128.993 25.7605C126.407 28.555 125.117 32.0039 125.117 36.1042C125.117 40.2563 126.429 43.7173 129.051 46.4874C131.673 49.2575 134.936 50.6395 138.846 50.6395C141.468 50.6395 143.837 49.9546 145.957 48.5817C148.073 47.2119 149.726 45.2668 150.912 42.7494H159.114V42.7463Z" fill="#F5F5F5"/>
<path d="M175.456 38.8957C176.085 42.369 177.655 45.1816 180.165 47.3338C182.674 49.4859 185.656 50.5605 189.108 50.5605C191.578 50.5605 193.829 49.9699 195.86 48.7858C197.887 47.6047 199.51 45.9305 200.72 43.7631H209.155C207.24 48.3688 204.559 51.8937 201.117 54.3351C197.674 56.7764 193.673 57.9971 189.108 57.9971C186.031 57.9971 183.22 57.4552 180.674 56.3746C178.125 55.294 175.819 53.6684 173.752 51.5041C171.809 49.4646 170.291 47.0933 169.196 44.3872C168.098 41.6841 167.552 38.92 167.552 36.1013C167.552 33.182 168.05 30.4515 169.047 27.9098C170.041 25.368 171.511 23.0515 173.453 20.9633C175.52 18.6985 177.853 16.9938 180.451 15.8462C183.046 14.7017 185.885 14.1294 188.962 14.1294C192.618 14.1294 196.015 14.9787 199.156 16.6773C202.294 18.3758 204.886 20.7502 206.929 23.7942C208.139 25.6815 209.033 27.7545 209.612 30.0041C210.191 32.2567 210.481 34.8319 210.481 37.7238V38.8927H175.456V38.8957ZM202.269 32.1775C201.336 28.7529 199.72 26.1046 197.43 24.2295C195.134 22.3544 192.386 21.4168 189.185 21.4168C185.906 21.4168 183.064 22.3787 180.656 24.3056C178.247 26.2325 176.591 28.8564 175.682 32.1775H202.269Z" fill="#F5F5F5"/>
<path d="M220.312 56.9044V1.93506H227.729V56.9044H220.312Z" fill="#F5F5F5"/>
<path d="M245.539 38.8957C246.167 42.369 247.737 45.1816 250.247 47.3338C252.757 49.4859 255.739 50.5605 259.191 50.5605C261.661 50.5605 263.911 49.9699 265.942 48.7858C267.97 47.6047 269.592 45.9305 270.803 43.7631H279.237C277.322 48.3688 274.642 51.8937 271.199 54.3351C267.756 56.7764 263.756 57.9971 259.191 57.9971C256.114 57.9971 253.302 57.4552 250.756 56.3746C248.207 55.294 245.902 53.6684 243.834 51.5041C241.892 49.4646 240.373 47.0933 239.278 44.3872C238.181 41.6841 237.635 38.92 237.635 36.1013C237.635 33.182 238.132 30.4515 239.129 27.9098C240.123 25.368 241.593 23.0515 243.535 20.9633C245.603 18.6985 247.936 16.9938 250.534 15.8462C253.129 14.7017 255.967 14.1294 259.044 14.1294C262.7 14.1294 266.097 14.9787 269.238 16.6773C272.376 18.3758 274.968 20.7502 277.011 23.7942C278.222 25.6815 279.115 27.7545 279.694 30.0041C280.274 32.2567 280.563 34.8319 280.563 37.7238V38.8927H245.539V38.8957ZM272.355 32.1775C271.422 28.7529 269.805 26.1046 267.515 24.2295C265.219 22.3544 262.472 21.4168 259.27 21.4168C255.992 21.4168 253.15 22.3787 250.741 24.3056C248.332 26.2325 246.676 28.8564 245.767 32.1775H272.355Z" fill="#F5F5F5"/>
<path d="M315.47 56.9046H286.727V50.8652L306.806 22.1721H289.145V15.3748H314.332V23.0397L295.573 49.882H315.467V56.9046H315.47Z" fill="#F5F5F5"/>
<path d="M350 56.9046H321.257V50.8652L341.337 22.1721H323.675V15.3748H348.862V23.0397L330.103 49.882H349.997V56.9046H350Z" fill="#F5F5F5"/>
</svg>
