<svg width="64" height="54" viewBox="0 0 64 54" fill="none" xmlns="http://www.w3.org/2000/svg">
<path d="M37.0562 19.6228C37.0562 16.0463 34.1504 13.1332 30.5829 13.1332C27.0153 13.1332 24.1096 16.0462 24.1096 19.6228C24.1096 23.1992 27.0153 26.1123 30.5829 26.1123C34.1504 26.1123 37.0562 23.1993 37.0562 19.6228Z" fill="#C9C9C9"/>
<path d="M22.8006 20.3031H16.6314V33.6718H29.9665V27.4419C26.1682 27.137 23.1272 24.1025 22.8006 20.3031Z" fill="#C9C9C9"/>
<path d="M11.4973 3.78441H9.18283V1.07455C9.18283 0.69912 8.87873 0.402725 8.51269 0.402725L1.75784 0.399902C1.38336 0.399902 1.08771 0.704765 1.08771 1.07172V7.83511C1.08771 8.21054 1.39181 8.50693 1.75784 8.50693H4.46091V10.8272C4.46091 11.2027 4.765 11.499 5.13105 11.499C5.4999 11.499 5.80118 11.1942 5.80118 10.8272V8.50693H8.50425C8.87873 8.50693 9.17438 8.20207 9.17438 7.83511V5.12525H11.4889C11.8633 5.12525 12.159 4.82038 12.159 4.45342C12.159 4.08364 11.8549 3.7816 11.4889 3.7816L11.4973 3.78441Z" fill="#C9C9C9"/>
<path d="M14.1195 5.1338H17.1098C17.4843 5.1338 17.7799 4.82895 17.7799 4.46198C17.7799 4.0922 17.4758 3.79016 17.1098 3.79016H14.1195C13.7451 3.79016 13.4494 4.09502 13.4494 4.46198C13.4494 4.83177 13.7535 5.1338 14.1195 5.1338Z" fill="#C9C9C9"/>
<path d="M19.7367 5.1338H22.727C23.1015 5.1338 23.3971 4.82895 23.3971 4.46198C23.3971 4.0922 23.093 3.79016 22.727 3.79016H19.7367C19.3622 3.79016 19.0666 4.09502 19.0666 4.46198C19.0666 4.83177 19.3707 5.1338 19.7367 5.1338Z" fill="#C9C9C9"/>
<path d="M25.343 5.1338H28.3332C28.7077 5.1338 29.0034 4.82895 29.0034 4.46198C29.0034 4.0922 28.6993 3.79016 28.3332 3.79016H25.343C24.9685 3.79016 24.6729 4.09502 24.6729 4.46198C24.6729 4.83177 24.9769 5.1338 25.343 5.1338Z" fill="#C9C9C9"/>
<path d="M30.9602 5.1338H33.9504C34.3249 5.1338 34.6206 4.82895 34.6206 4.46198C34.6206 4.0922 34.3165 3.79016 33.9504 3.79016H30.9602C30.5857 3.79016 30.29 4.09502 30.29 4.46198C30.29 4.83177 30.5941 5.1338 30.9602 5.1338Z" fill="#C9C9C9"/>
<path d="M36.575 5.1338H39.5652C39.9397 5.1338 40.2354 4.82895 40.2354 4.46198C40.2354 4.0922 39.9313 3.79016 39.5652 3.79016H36.575C36.2005 3.79016 35.9048 4.09502 35.9048 4.46198C35.9048 4.83177 36.2089 5.1338 36.575 5.1338Z" fill="#C9C9C9"/>
<path d="M42.1844 5.13391H44.4988V7.84377C44.4988 8.2192 44.8029 8.5156 45.169 8.5156H47.872V10.8359C47.872 11.2113 48.1761 11.5077 48.5422 11.5077C48.911 11.5077 49.2123 11.2028 49.2123 10.8359V8.5156H51.9154C52.2899 8.5156 52.5855 8.21073 52.5855 7.84377V1.08039C52.5855 0.704963 52.2814 0.408569 51.9154 0.408569H45.169C44.7945 0.408569 44.4988 0.713432 44.4988 1.08039V3.79025H42.1844C41.8099 3.79025 41.5142 4.09511 41.5142 4.46208C41.5142 4.83186 41.8183 5.13391 42.1844 5.13391Z" fill="#C9C9C9"/>
<path d="M11.4982 41.6769H9.18372V38.967C9.18372 38.5916 8.87962 38.2952 8.51358 38.2952H5.81052V35.9749C5.81052 35.5995 5.50642 35.3031 5.14038 35.3031C4.77153 35.3031 4.47025 35.608 4.47025 35.9749V38.2952H1.76718C1.3927 38.2952 1.09705 38.6001 1.09705 38.967V45.7304C1.09705 46.1059 1.40114 46.4022 1.76718 46.4022H8.5136C8.88809 46.4022 9.18373 46.0974 9.18373 45.7304V43.0206H11.4982C11.8727 43.0206 12.1683 42.7157 12.1683 42.3487C12.1683 41.979 11.8642 41.6769 11.4982 41.6769Z" fill="#C9C9C9"/>
<path d="M17.1129 41.6761H14.1227C13.7482 41.6761 13.4525 41.981 13.4525 42.348C13.4525 42.7178 13.7566 43.0198 14.1227 43.0198H17.1129C17.4874 43.0198 17.783 42.7149 17.783 42.348C17.783 41.9782 17.4789 41.6761 17.1129 41.6761Z" fill="#C9C9C9"/>
<path d="M22.7278 41.6761H19.7375C19.363 41.6761 19.0674 41.981 19.0674 42.348C19.0674 42.7178 19.3715 43.0198 19.7375 43.0198H22.7278C23.1022 43.0198 23.3979 42.7149 23.3979 42.348C23.3979 41.9782 23.0938 41.6761 22.7278 41.6761Z" fill="#C9C9C9"/>
<path d="M28.3363 41.6761H25.3461C24.9716 41.6761 24.676 41.981 24.676 42.348C24.676 42.7178 24.9801 43.0198 25.3461 43.0198H28.3363C28.7108 43.0198 29.0065 42.7149 29.0065 42.348C29.0065 41.9782 28.7024 41.6761 28.3363 41.6761Z" fill="#C9C9C9"/>
<path d="M4.46191 33.3441C4.46191 33.7196 4.766 34.016 5.13205 34.016C5.50091 34.016 5.80219 33.7111 5.80219 33.3441V30.3464C5.80219 29.971 5.4981 29.6746 5.13205 29.6746C4.76319 29.6746 4.46191 29.9794 4.46191 30.3464V33.3441Z" fill="#C9C9C9"/>
<path d="M4.46191 27.7165C4.46191 28.0919 4.766 28.3883 5.13205 28.3883C5.50091 28.3883 5.80219 28.0834 5.80219 27.7165V24.7187C5.80219 24.3433 5.4981 24.0469 5.13205 24.0469C4.76319 24.0469 4.46191 24.3517 4.46191 24.7187V27.7165Z" fill="#C9C9C9"/>
<path d="M4.46191 22.0875C4.46191 22.463 4.766 22.7594 5.13205 22.7594C5.50091 22.7594 5.80219 22.4545 5.80219 22.0875V19.0898C5.80219 18.7144 5.4981 18.418 5.13205 18.418C4.76319 18.418 4.46191 18.7228 4.46191 19.0898V22.0875Z" fill="#C9C9C9"/>
<path d="M5.13126 17.1358C5.50574 17.1358 5.80139 16.831 5.80139 16.464V13.4663C5.80139 13.0908 5.4973 12.7944 5.13126 12.7944C4.7624 12.7944 4.46112 13.0993 4.46112 13.4663V16.464C4.46112 16.8394 4.76521 17.1358 5.13126 17.1358Z" fill="#C9C9C9"/>
<path d="M48.5469 24.0469C48.1724 24.0469 47.8768 24.3517 47.8768 24.7187V27.7165C47.8768 28.0919 48.1809 28.3883 48.5469 28.3883C48.9158 28.3883 49.217 28.0834 49.217 27.7165V24.7187C49.217 24.3433 48.9129 24.0469 48.5469 24.0469Z" fill="#C9C9C9"/>
<path d="M49.2249 19.0944C49.2249 18.719 48.9208 18.4226 48.5547 18.4226C48.1859 18.4226 47.8846 18.7275 47.8846 19.0944V22.0922C47.8846 22.4676 48.1887 22.764 48.5547 22.764C48.9236 22.764 49.2249 22.4591 49.2249 22.0922V19.0944Z" fill="#C9C9C9"/>
<path d="M49.2249 13.4663C49.2249 13.0908 48.9208 12.7944 48.5547 12.7944C48.1859 12.7944 47.8846 13.0993 47.8846 13.4663V16.464C47.8846 16.8394 48.1887 17.1358 48.5547 17.1358C48.9236 17.1358 49.2249 16.831 49.2249 16.464V13.4663Z" fill="#C9C9C9"/>
<path d="M63.0422 47.3839H61.2965C60.7277 44.6515 59.2917 42.3622 57.0279 40.5754C55.8593 39.658 54.5979 38.9777 53.4322 38.4809H58.9763C59.2804 39.7088 60.3897 40.6205 61.7018 40.6205C63.2504 40.6205 64.5119 39.3559 64.5119 37.8034C64.5119 36.2509 63.2504 34.9863 61.7018 34.9863C60.3841 34.9863 59.2803 35.8981 58.9763 37.126H51.3515V35.6582C51.3515 35.2827 51.0474 34.9863 50.6814 34.9863H46.4127C46.0383 34.9863 45.7426 35.2912 45.7426 35.6582V37.126H38.1178C37.8137 35.8981 36.7044 34.9863 35.3922 34.9863C33.8436 34.9863 32.5822 36.2509 32.5822 37.8034C32.5822 39.3559 33.8436 40.6205 35.3922 40.6205C36.71 40.6205 37.8138 39.7088 38.1178 38.4809H43.6619C42.53 38.9664 41.3108 39.6156 40.1817 40.4964C37.8531 42.2945 36.3834 44.6092 35.8061 47.3896H34.0604C33.6859 47.3896 33.3903 47.6945 33.3903 48.0614V52.3408C33.3903 52.7162 33.6944 53.0126 34.0604 53.0126H38.329C38.7035 53.0126 38.9991 52.7078 38.9991 52.3408V48.0614C38.9991 47.686 38.695 47.3896 38.329 47.3896H37.183C38.3712 42.3679 42.7131 40.1207 45.7543 39.1444V39.9461C45.7543 40.3215 46.0584 40.6179 46.4244 40.6179H50.693C51.0675 40.6179 51.3632 40.3131 51.3632 39.9461V39.1444C54.3534 40.1041 58.7371 42.3454 59.9344 47.3896H58.7884C58.414 47.3896 58.1183 47.6945 58.1183 48.0614V52.3408C58.1183 52.7162 58.4224 53.0126 58.7884 53.0126H63.0571C63.4315 53.0126 63.7272 52.7078 63.7272 52.3408V48.0614C63.7272 47.686 63.4231 47.3896 63.0571 47.3896L63.0422 47.3839Z" fill="#C9C9C9"/>
</svg>
