<svg width="232" height="246" viewBox="0 0 232 246" fill="none" xmlns="http://www.w3.org/2000/svg">
<path d="M1.21755 40.26C-1.92632 26.851 10.2771 14.6931 23.188 18.3733L115.431 44.6739L207.673 70.9744C220.584 74.6546 224.514 91.4151 214.751 101.144L144.982 170.645L75.2128 240.147C65.4488 249.876 49.3117 245.273 46.1648 231.864L23.6912 136.062L1.21755 40.26Z" fill="#EC1C24"/>
<path d="M52.1362 240.387C48.7514 239.273 45.1471 238.579 42.0185 236.969C30.3517 230.963 23.8231 221.292 23.5242 208.127C23.1797 193.031 23.4053 177.927 23.4023 162.825C23.3962 120.023 23.4389 77.2237 23.3687 34.4214C23.3565 26.0595 25.3691 18.4433 30.8579 12.0538C42.3631 -1.3369 59.5064 -3.75083 74.8995 5.71614C112.089 28.5921 149.27 51.4802 186.453 74.3653C195.916 80.1886 205.396 85.9844 214.834 91.8503C237.045 105.655 237.066 135.252 214.794 148.956C186.472 166.384 158.061 183.662 129.687 201.007C124.213 204.352 118.767 207.749 113.257 211.037C108.842 213.67 104.262 213.1 101.041 209.682C96.8852 205.268 97.922 198.447 103.417 195.013C110.982 190.288 118.627 185.692 126.238 181.041C152.276 165.126 178.315 149.215 204.35 133.295C211.016 129.219 213.48 124.169 212.114 117.256C211.229 112.781 208.253 109.898 204.527 107.609C185.261 95.768 166.005 83.9145 146.745 72.064C119.353 55.2122 91.9514 38.3787 64.5836 21.4934C59.9913 18.6594 55.2862 17.8284 50.331 20.224C44.9611 22.8175 42.2472 27.2192 42.238 33.1642C42.2075 54.917 42.2258 76.6697 42.2258 98.4224C42.2258 134.339 42.2197 170.253 42.2319 206.169C42.235 214.346 47.1566 220.254 54.8867 221.469C58.0153 221.959 60.7262 220.817 63.3608 219.347C66.8675 217.39 70.3895 217.24 73.7865 219.52C79.6656 223.465 79.3363 232.074 72.9601 235.462C69.4168 237.346 65.4496 238.439 61.6715 239.882C61.1683 240.074 60.6469 240.223 60.1346 240.393C57.4665 240.387 54.8013 240.387 52.1362 240.387Z" fill="#F5F5F5"/>
<path d="M105.588 159.525C100.578 160.055 96.0859 156.43 95.5553 151.425L88.8346 88.0239C88.304 83.0226 91.9357 78.5387 96.9488 78.009C101.959 77.4794 106.451 81.1048 106.981 86.1092L113.702 149.51C114.229 154.512 110.598 158.996 105.588 159.525Z" fill="#F5F5F5"/>
<path d="M60.4359 123.082C59.9053 118.081 63.537 113.597 68.5502 113.067L132.062 106.358C137.072 105.828 141.563 109.454 142.094 114.458C142.625 119.46 138.993 123.944 133.98 124.473L70.4682 131.182C65.4612 131.709 60.9665 128.083 60.4359 123.082Z" fill="#F5F5F5"/>
</svg>
