<svg width="64" height="64" viewBox="0 0 64 64" fill="none" xmlns="http://www.w3.org/2000/svg">
<path d="M5.33281 18.5002V49.84C5.33281 53.9321 8.65842 57.2577 12.7505 57.2577H51.2484C55.3405 57.2577 58.6661 53.9321 58.6661 49.84V18.5002V12.7515C58.6661 8.65935 55.3405 5.33374 51.2484 5.33374H12.7505C8.65842 5.33374 5.33281 8.65935 5.33281 12.7515V18.5002C5.33281 18.4878 5.33281 18.4878 5.33281 18.5002ZM51.2484 54.7851H12.7505C10.0183 54.7851 7.80538 52.5722 7.80538 49.84V19.7241H56.1936V49.84C56.1936 52.5722 53.9683 54.7851 51.2484 54.7851ZM27.5489 7.80631L33.4336 17.2515H22.035L16.1503 7.80631H27.5489ZM41.8527 7.80631L47.7374 17.2515H36.3388L30.4665 7.80631H41.8527ZM56.1936 12.7515V17.2515H50.655L44.7703 7.80631H51.2484C53.9683 7.80631 56.1936 10.0193 56.1936 12.7515ZM12.7505 7.80631H13.2327L19.1174 17.2515H7.79302V12.7515C7.80538 10.0193 10.0307 7.80631 12.7505 7.80631Z" fill="#C9C9C9"/>
<path d="M39.9605 34.1971L29.1554 27.8549C28.0798 27.2244 26.8064 27.2244 25.7185 27.8302C24.6429 28.4483 24 29.561 24 30.7973V43.4939C24 44.7302 24.6429 45.8429 25.7185 46.461C26.2501 46.7701 26.8311 46.9184 27.4246 46.9184C28.018 46.9184 28.6114 46.7577 29.1554 46.4363L39.9605 40.0941C41.0237 39.476 41.6542 38.3757 41.6542 37.1394C41.6418 35.9155 41.0113 34.8152 39.9605 34.1971ZM38.6995 37.9677L27.8943 44.3099C27.4616 44.5571 27.0908 44.3964 26.9424 44.3099C26.794 44.2233 26.4603 43.9884 26.4603 43.4816V30.7973C26.4603 30.3028 26.794 30.0555 26.9424 29.969C27.0289 29.9195 27.202 29.8453 27.4246 29.8453C27.5729 29.8453 27.7336 29.8824 27.8943 29.9813L38.6995 36.3235C39.1198 36.5707 39.1693 36.9787 39.1693 37.1394C39.1693 37.3125 39.1322 37.7205 38.6995 37.9677Z" fill="#C9C9C9"/>
</svg>
