<svg width="53" height="64" viewBox="0 0 53 64" fill="none" xmlns="http://www.w3.org/2000/svg">
<g clip-path="url(#clip0_309_265)">
<path d="M35.2043 2.64168L35.3077 3.00033H37.389L37.1261 2.08797C36.91 1.35305 36.4126 0.733093 35.742 0.362737C35.0714 -0.0076181 34.2818 -0.0984576 33.5447 0.109948L23.2549 3.00033H30.65L34.0857 2.03524C34.3144 1.96913 34.56 1.99568 34.7693 2.10916C34.9786 2.22264 35.1349 2.41393 35.2043 2.64168Z" fill="#C9C9C9"/>
<path d="M2.9861 10.7707L3.83372 10.5326V8.45532L2.44508 8.8454C2.07669 8.94719 1.73229 9.12139 1.43199 9.35781C1.1317 9.59424 0.881533 9.88814 0.696125 10.2224C0.511548 10.5513 0.394375 10.9137 0.35145 11.2885C0.308526 11.6632 0.340711 12.0428 0.446125 12.405L3.83373 24.161V16.9379L2.36798 11.8513C2.33627 11.7425 2.32659 11.6285 2.33949 11.5159C2.3524 11.4034 2.38764 11.2945 2.44315 11.1958C2.50084 11.0924 2.57858 11.0015 2.6718 10.9285C2.76503 10.8555 2.87188 10.8019 2.9861 10.7707Z" fill="#C9C9C9"/>
<path d="M33.3325 23.0002C34.1279 22.9994 34.8904 22.683 35.4529 22.1206C36.0153 21.5582 36.3316 20.7956 36.3325 20.0002V13.0002C36.3316 12.2049 36.0153 11.4423 35.4529 10.8799C34.8904 10.3175 34.1279 10.0011 33.3325 10.0002H19.3329C18.5376 10.0011 17.775 10.3175 17.2126 10.8799C16.6502 11.4423 16.3339 12.2049 16.333 13.0002V20.0002C16.3339 20.7956 16.6502 21.5582 17.2126 22.1206C17.775 22.683 18.5376 22.9994 19.3329 23.0002H33.3325ZM18.333 20.0002V13.0002C18.3333 12.7351 18.4387 12.4809 18.6262 12.2935C18.8137 12.106 19.0678 12.0005 19.3329 12.0002H33.3325C33.5976 12.0005 33.8518 12.106 34.0393 12.2935C34.2267 12.4809 34.3322 12.7351 34.3325 13.0002V20.0002C34.3322 20.2654 34.2267 20.5195 34.0393 20.707C33.8518 20.8945 33.5976 20.9999 33.3325 21.0002H19.3329C19.0678 20.9999 18.8137 20.8945 18.6262 20.707C18.4387 20.5195 18.3333 20.2654 18.333 20.0002Z" fill="#C9C9C9"/>
<path d="M24.7185 19.1538C24.8366 19.1535 24.9523 19.1199 25.0521 19.0567L28.284 17.0367C28.3749 16.9798 28.4499 16.9008 28.5018 16.8071C28.5538 16.7133 28.5811 16.6079 28.5811 16.5007C28.5811 16.3935 28.5538 16.288 28.5018 16.1943C28.4499 16.1005 28.3749 16.0215 28.284 15.9647L25.0521 13.9446C24.9522 13.8814 24.8366 13.8478 24.7185 13.8475C24.6353 13.8475 24.5529 13.8638 24.476 13.8956C24.3992 13.9273 24.3293 13.974 24.2705 14.0328C24.2116 14.0916 24.165 14.1614 24.1331 14.2382C24.1013 14.3151 24.0849 14.3975 24.085 14.4807V18.5207C24.0849 18.6038 24.1013 18.6862 24.1331 18.7631C24.1649 18.8399 24.2116 18.9097 24.2705 18.9686C24.3293 19.0274 24.3991 19.074 24.476 19.1058C24.5529 19.1375 24.6353 19.1539 24.7185 19.1538Z" fill="#C9C9C9"/>
<path d="M12.333 27.0002C12.333 27.2655 12.4384 27.5198 12.6259 27.7073C12.8134 27.8949 13.0678 28.0002 13.333 28.0002H38.3323C38.5975 28.0002 38.8519 27.8949 39.0394 27.7074C39.2269 27.5198 39.3323 27.2655 39.3323 27.0002C39.3323 26.735 39.2269 26.4807 39.0394 26.2931C38.8519 26.1056 38.5975 26.0002 38.3323 26.0002H13.333C13.0678 26.0003 12.8134 26.1056 12.6259 26.2932C12.4384 26.4807 12.333 26.735 12.333 27.0002Z" fill="#C9C9C9"/>
<path d="M13.333 40.0002H23.8327C24.0979 40.0002 24.3523 39.8949 24.5398 39.7074C24.7273 39.5198 24.8327 39.2655 24.8327 39.0002C24.8327 38.735 24.7273 38.4807 24.5398 38.2931C24.3523 38.1056 24.0979 38.0002 23.8327 38.0002H13.333C13.0678 38.0002 12.8134 38.1056 12.6259 38.2931C12.4384 38.4807 12.333 38.735 12.333 39.0002C12.333 39.2655 12.4384 39.5198 12.6259 39.7074C12.8134 39.8949 13.0678 40.0002 13.333 40.0002Z" fill="#C9C9C9"/>
<path d="M13.333 36.0002H35.2408L36.1892 34.0002H13.333C13.0678 34.0002 12.8134 34.1056 12.6259 34.2931C12.4384 34.4807 12.333 34.735 12.333 35.0002C12.333 35.2655 12.4384 35.5198 12.6259 35.7074C12.8134 35.8949 13.0678 36.0002 13.333 36.0002Z" fill="#C9C9C9"/>
<path d="M13.333 32.0002H37.1377L38.0862 30.0002H13.333C13.0678 30.0002 12.8134 30.1056 12.6259 30.2931C12.4384 30.4807 12.333 30.735 12.333 31.0002C12.333 31.2655 12.4384 31.5198 12.6259 31.7074C12.8134 31.8949 13.0678 32.0002 13.333 32.0002Z" fill="#C9C9C9"/>
<path d="M6.08203 8.00024V52.0002C6.08518 52.2648 6.19009 52.518 6.375 52.7073L17.3747 63.7073C17.5628 63.8939 17.8167 63.9991 18.0817 64.0002H43.081C43.8763 63.9994 44.6389 63.683 45.2013 63.1206C45.7637 62.5582 46.08 61.7956 46.0809 61.0002V44.6579L44.0809 48.8772V61.0002C44.0806 61.2654 43.9752 61.5195 43.7877 61.707C43.6003 61.8945 43.3461 61.9999 43.081 62.0002H19.0817V54.0002C19.0808 53.2049 18.7645 52.4423 18.2021 51.8799C17.6397 51.3175 16.8771 51.0011 16.0818 51.0002H8.08197V8.00024C8.08227 7.73513 8.18772 7.48095 8.37519 7.29348C8.56265 7.10601 8.81682 7.00055 9.08194 7.00024H43.0809C43.3461 7.00055 43.6002 7.106 43.7877 7.29348C43.9752 7.48095 44.0806 7.73512 44.0809 8.00024V21.0908C44.7444 20.942 45.4358 20.977 46.0808 21.1921V8.00024C46.08 7.20487 45.7637 6.44232 45.2013 5.8799C44.6389 5.31748 43.8763 5.00112 43.0809 5.00024H9.08194C8.28657 5.00113 7.52403 5.31748 6.96163 5.8799C6.39922 6.44232 6.08289 7.20487 6.08203 8.00024ZM16.0818 53.0002C16.3469 53.0006 16.601 53.106 16.7885 53.2935C16.976 53.4809 17.0814 53.7351 17.0817 54.0002V60.5859L13.2889 56.7931L9.49622 53.0002L16.0818 53.0002Z" fill="#C9C9C9"/>
<path d="M49.6567 56.1087L47.832 56.6675V58.759L50.2202 58.0277C50.5887 57.9258 50.9332 57.7516 51.2335 57.5151C51.5339 57.2786 51.7842 56.9846 51.9696 56.6502C52.1542 56.3214 52.2713 55.959 52.3143 55.5843C52.3572 55.2097 52.325 54.8302 52.2196 54.4681L48.1404 40.3119L47.832 40.9623V46.465L50.2978 55.0218C50.3295 55.1305 50.3391 55.2445 50.3262 55.357C50.3133 55.4695 50.2781 55.5784 50.2226 55.6771C50.1622 55.7834 50.0809 55.8765 49.9837 55.9506C49.8864 56.0248 49.7752 56.0786 49.6567 56.1087Z" fill="#C9C9C9"/>
<path d="M50.7143 25.6215L45.7486 23.2016C45.5116 23.086 45.2539 23.0186 44.9906 23.0035C44.7273 22.9884 44.4636 23.0258 44.2149 23.1136C43.9662 23.2014 43.7375 23.3378 43.542 23.5149C43.3465 23.692 43.1882 23.9061 43.0763 24.145L32.5522 46.3352C32.4106 46.6486 32.3351 46.9878 32.3306 47.3317L31.8345 55.2429L31.8325 55.3032C31.802 55.6202 31.8672 55.9392 32.0198 56.2187C32.1724 56.4983 32.4053 56.7257 32.6885 56.8716C32.8719 56.9564 33.0718 57 33.2739 56.9995C33.6946 56.9875 34.0971 56.8246 34.4076 56.5405L40.4807 51.3723C40.7081 51.1827 40.8904 50.9448 41.0144 50.676L51.6474 28.2429C51.8633 27.7704 51.8866 27.2324 51.7124 26.743C51.5382 26.2536 51.1802 25.8513 50.7143 25.6215ZM33.8945 54.3481L34.236 48.8992L38.049 50.8152L33.8945 54.3481ZM39.4567 49.2845L34.5387 46.8133L44.882 25.0041L49.8364 27.394L39.4567 49.2845Z" fill="#C9C9C9"/>
</g>
<defs>
<clipPath id="clip0_309_265">
<rect width="52" height="64" fill="white" transform="translate(0.332916 0.00012207)"/>
</clipPath>
</defs>
</svg>
