<svg width="54" height="44" viewBox="0 0 54 44" fill="none" xmlns="http://www.w3.org/2000/svg">
<path d="M45.621 0.667358H8.3778C3.94161 0.667358 0.332718 3.61118 0.332718 7.22921V27.039C0.332718 30.6571 3.94161 33.6004 8.3778 33.6004H20.4895C21.3556 33.6004 22.0584 33.0282 22.0584 32.3208C22.0584 31.6135 21.3562 31.0413 20.4895 31.0413H8.3778C5.67176 31.0413 3.46986 29.246 3.46986 27.0385V7.22921C3.46986 5.02173 5.67176 3.22644 8.3778 3.22644H45.6203C48.3264 3.22644 50.5283 5.02173 50.5283 7.22921V18.3043C50.5283 19.0116 51.2305 19.5838 52.0972 19.5838C52.9638 19.5838 53.666 19.0111 53.666 18.3043V7.22921C53.666 3.61118 50.0572 0.667358 45.621 0.667358Z" fill="#C9C9C9"/>
<path d="M32.238 16.5362C32.238 15.7385 31.7615 14.8691 30.9959 14.3003L24.3778 9.69815C22.9798 8.65952 19.7618 9.52613 19.7618 11.5895V20.8364C19.7618 22.2935 21.3458 23.1948 22.8132 23.1948C23.4262 23.1948 23.967 23.033 24.3223 22.7666L31.4511 18.1039C31.9586 17.727 32.238 17.1702 32.238 16.5362ZM23.0362 20.8799C23.0182 20.8877 22.9441 20.9099 22.8137 20.9099C22.4857 20.9099 22.1799 20.7837 22.0481 20.6912V11.7356C22.1799 11.6418 22.4857 11.5169 22.8141 11.5169C22.9441 11.5169 23.0191 11.5382 23.0436 11.5525L29.6613 16.1561C29.7593 16.2287 29.8352 16.3202 29.8856 16.3993L23.0362 20.8799Z" fill="#C9C9C9"/>
<path d="M30.923 27.6837C30.6692 27.9246 30.522 28.2739 30.522 28.6222C30.522 28.9705 30.6687 29.3188 30.923 29.5738C31.1639 29.8287 31.5119 29.9627 31.8594 29.9627C32.2204 29.9627 32.5549 29.8293 32.8088 29.5738C33.0626 29.3188 33.1968 28.9705 33.1968 28.6222C33.1968 28.2739 33.0631 27.9246 32.8088 27.6837C32.3141 27.1743 31.4053 27.1743 30.923 27.6837Z" fill="#C9C9C9"/>
<g clip-path="url(#clip0_309_296)">
<path d="M26.0896 40.9388C26.2367 41.253 26.4889 41.4326 26.741 41.4326C26.8881 41.4326 27.0458 41.3728 27.1823 41.253L32.3623 36.2993C32.8982 35.7755 33.6967 35.8354 34.1801 36.4191L34.5268 36.8531C35.6511 38.215 37.4057 38.215 38.5195 36.8531L42.8904 31.5102C43.4158 30.8667 44.3089 30.8667 44.8342 31.5102L49.2277 35.9922L52.6304 39.3442L53.1665 37.2558L50.2574 34.2861L45.8639 29.8041C44.7397 28.4422 42.985 28.4422 41.8713 29.8041L37.5003 35.147C36.9855 35.7905 36.0924 35.7905 35.567 35.147L35.2203 34.7129C34.1906 33.4708 32.625 33.3361 31.4903 34.4286L26.3103 39.3823C25.9425 39.7265 25.8479 40.4299 26.0896 40.9388Z" fill="#C9C9C9"/>
</g>
<rect x="26.015" y="22.9321" width="26.5119" height="20.0536" rx="2.85714" stroke="#C9C9C9" stroke-width="1.90476"/>
<defs>
<clipPath id="clip0_309_296">
<rect x="25.0626" y="21.9797" width="28.4167" height="21.9583" rx="3.80952" fill="white"/>
</clipPath>
</defs>
</svg>
