<svg width="64" height="64" viewBox="0 0 64 64" fill="none" xmlns="http://www.w3.org/2000/svg">
<path d="M51.107 5.33396H12.8643C8.7572 5.28872 5.39038 8.57442 5.3337 12.6793C5.33608 17.0388 5.33131 45.4862 5.3337 49.8461C5.39084 53.9509 8.7575 57.2366 12.8643 57.1915H51.107C55.2117 57.2367 58.5785 53.951 58.6358 49.8461C58.731 49.2985 58.5668 17.5604 58.6358 15.875V12.6798C58.5787 8.57503 55.212 5.28885 51.107 5.33396ZM56.7332 12.6793V14.9245H51.5404V7.26041C54.4213 7.43184 56.6832 9.79359 56.7332 12.6793ZM56.7332 45.6983H7.23815V16.8271H56.7332V45.6983ZM49.6377 55.2861H44.1068V47.6007H49.6354L49.6377 55.2861ZM14.3738 47.6007H19.9024V55.2861H14.3738V47.6007ZM21.8069 47.6007H27.3355V55.2861H21.8069V47.6007ZM29.2401 47.6007H34.7686V55.2861H29.2401V47.6007ZM36.6732 47.6007H42.2041V55.2861H36.6732V47.6007ZM14.3732 7.23871H19.9018V14.9242H14.3732V7.23871ZM49.6371 14.9242H44.1062V7.23871H49.6347L49.6371 14.9242ZM42.204 14.9242H36.6731V7.23871H42.204V14.9242ZM34.7709 14.9242H29.2399V7.23871H34.7685L34.7709 14.9242ZM27.3377 14.9242H21.8068V7.23871H27.3354L27.3377 14.9242ZM12.4709 7.25761V14.9242H7.2376V12.6789C7.2876 9.77658 9.57329 7.40993 12.4685 7.25755L12.4709 7.25761ZM7.2376 49.8455V47.6003H12.4709V55.2669H12.4685C9.57328 55.1145 7.28758 52.7479 7.2376 49.8455ZM51.5425 55.2645L51.5402 47.6004H56.7306V49.8457H56.733C56.683 52.7314 54.4211 55.0933 51.5402 55.2647L51.5425 55.2645Z" fill="#C9C9C9"/>
<path d="M44.7339 24.9118L38.6338 26.119C38.2957 24.1452 36.5861 22.6999 34.5814 22.6952H22.2246C19.9484 22.6976 18.1032 24.5428 18.1008 26.819V35.707V35.7046C18.1032 37.9808 19.9484 39.8261 22.2246 39.8284H34.5814C36.5862 39.8237 38.2957 38.3784 38.6338 36.4046L44.7339 37.6118C45.0124 37.6665 45.3029 37.5927 45.522 37.4118C45.7434 37.2332 45.8696 36.9618 45.8696 36.6785V25.8454C45.8672 25.5621 45.741 25.293 45.5196 25.1145C45.3005 24.9335 45.0125 24.8595 44.7339 24.9118ZM36.8003 35.7046C36.8003 36.9308 35.8075 37.9237 34.5813 37.9237H22.2244C20.9983 37.9237 20.0054 36.9308 20.0054 35.7046V26.819C20.0054 25.5929 20.9983 24.6 22.2244 24.6H34.5813C35.8075 24.6 36.8003 25.5929 36.8003 26.819V35.7046ZM43.9646 35.5189L38.7028 34.4785L38.7051 28.045L43.967 27.0045L43.9646 35.5189Z" fill="#C9C9C9"/>
</svg>
