<svg width="64" height="64" viewBox="0 0 64 64" fill="none" xmlns="http://www.w3.org/2000/svg">
<mask id="path-1-outside-1_309_279" maskUnits="userSpaceOnUse" x="4.3331" y="7.00024" width="55" height="48" fill="black">
<rect fill="white" x="4.3331" y="7.00024" width="55" height="48"/>
<path d="M15.8862 52.8383H48.1119V50.0563H15.8862V52.8383ZM48.6915 53.9975H15.3066C14.982 53.9975 14.727 53.7425 14.727 53.4179V49.4767C14.727 49.1521 14.982 48.8971 15.3066 48.8971H21.2185V47.5408C21.2185 46.1498 22.3545 45.0253 23.7339 45.0253H26.2494V39.4612C25.6814 39.1598 25.1482 38.7773 24.6961 38.3252L21.6474 35.2765C19.1319 32.761 19.1319 28.6458 21.6474 26.1304L31.0833 16.6829C33.5987 14.1674 37.7139 14.1674 40.2294 16.6829L43.278 19.7316C45.7935 22.2471 45.7935 26.3622 43.278 28.8777L33.8422 38.3252C33.2394 38.9279 32.4975 39.4148 31.7092 39.7394V45.0369H34.2247C35.6042 45.0369 36.7402 46.1729 36.7402 47.5524V48.9087H48.6915C49.0045 48.9087 49.2711 49.1637 49.2711 49.4883V53.4295C49.2711 53.7309 49.0161 53.9975 48.6915 53.9975ZM46.2108 12.8228C45.6776 12.2895 46.489 11.4665 47.0339 11.9997C55.3337 20.2996 55.3337 33.7579 47.0339 42.0578C46.5006 42.591 45.6776 41.7796 46.2108 41.2348C54.0586 33.387 54.0586 20.6706 46.2108 12.8228ZM17.7873 41.2348C18.3205 41.7796 17.509 42.591 16.9642 42.0578C8.66435 33.7579 8.66435 20.2996 16.9642 11.9997C17.4975 11.4665 18.3205 12.2779 17.7873 12.8228C9.93947 20.6706 9.93947 33.387 17.7873 41.2348ZM13.9619 45.0601C14.4951 45.6049 13.6837 46.4164 13.1389 45.8831C2.72925 35.4735 2.72925 18.5956 13.1505 8.17438C13.6953 7.64115 14.5067 8.45259 13.9735 8.99741C4.00437 18.9549 4.00437 35.1026 13.9619 45.0601ZM50.0362 8.99741C49.4914 8.46418 50.3144 7.64115 50.8592 8.17438C61.2688 18.584 61.2688 35.4619 50.8592 45.8831C50.326 46.4164 49.503 45.6049 50.0362 45.0601C59.9937 35.1026 59.9937 18.9549 50.0362 8.99741ZM41.3422 19.4302L33.7147 27.0577C33.1814 27.591 32.3584 26.7795 32.8916 26.2347L40.5308 18.5956L39.4179 17.4828C37.3545 15.4194 33.9697 15.4194 31.9179 17.4828L31.6049 17.7957L34.6536 20.8444C35.1868 21.3777 34.3754 22.2007 33.8306 21.6675L30.7819 18.6188L30.0052 19.3954L33.0539 22.4441C33.5871 22.9774 32.7757 23.8004 32.2309 23.2672L29.1822 20.2185L28.4055 20.9951L31.4542 24.0438C31.999 24.5771 31.176 25.4001 30.6312 24.8669L27.5825 21.8182L26.8058 22.5948L29.8545 25.6435C30.3878 26.1883 29.5763 26.9998 29.0315 26.4666L25.9828 23.4179L25.2061 24.1945L27.084 26.0724C27.6173 26.6172 26.8058 27.4287 26.261 26.8955L24.3831 25.0176L23.6064 25.7942L25.4843 27.6721C26.0176 28.2054 25.2061 29.0284 24.6613 28.4952L22.7834 26.6172L22.4704 26.9302C20.407 28.9936 20.407 32.3669 22.4704 34.4303L25.5075 37.4905L26.2378 38.1049V33.6652C24.6149 32.1234 24.5802 29.5616 26.1567 27.9735C27.71 26.4202 30.2255 26.4202 31.7672 27.9735C33.3437 29.55 33.3089 32.1234 31.6861 33.6652V38.4527C32.4048 38.0933 32.7525 37.734 33.3205 37.1776L32.2309 36.0879C31.6861 35.5547 32.5091 34.7316 33.0539 35.2649L34.1436 36.3545L34.9202 35.5779L32.9032 33.5609C32.37 33.016 33.1814 32.2046 33.7262 32.7378L35.7433 34.7548L36.5199 33.9782L33.4712 30.9295C32.9264 30.3962 33.7494 29.5732 34.2943 30.1064L37.343 33.1551L38.1196 32.3785L35.0709 29.3298C34.5377 28.7965 35.3491 27.9735 35.894 28.5067L38.9426 31.5554L39.7193 30.7788L36.6706 27.7301C36.1374 27.1968 36.9488 26.3738 37.4936 26.907L40.5423 29.9557L41.319 29.1791L38.2819 26.1304C37.7371 25.5972 38.5601 24.7741 39.1049 25.3074L42.1536 28.356L42.4666 28.0431C44.53 25.9797 44.53 22.5948 42.4666 20.543L41.3422 19.4302ZM30.5384 34.4303C29.5415 34.8592 28.3939 34.8592 27.397 34.4303V45.0137H30.5384V34.4303ZM30.9558 28.7965C29.1938 27.0346 26.1567 28.2865 26.1567 30.7788C26.1567 33.2711 29.1938 34.5346 30.9558 32.761C32.057 31.6714 32.057 29.8978 30.9558 28.7965ZM34.2131 46.1729H23.7339C22.9921 46.1729 22.3777 46.7873 22.3777 47.5292V48.8855H35.581V47.5292C35.5694 46.7873 34.9666 46.1729 34.2131 46.1729Z"/>
</mask>
<path d="M15.8862 52.8383H48.1119V50.0563H15.8862V52.8383ZM48.6915 53.9975H15.3066C14.982 53.9975 14.727 53.7425 14.727 53.4179V49.4767C14.727 49.1521 14.982 48.8971 15.3066 48.8971H21.2185V47.5408C21.2185 46.1498 22.3545 45.0253 23.7339 45.0253H26.2494V39.4612C25.6814 39.1598 25.1482 38.7773 24.6961 38.3252L21.6474 35.2765C19.1319 32.761 19.1319 28.6458 21.6474 26.1304L31.0833 16.6829C33.5987 14.1674 37.7139 14.1674 40.2294 16.6829L43.278 19.7316C45.7935 22.2471 45.7935 26.3622 43.278 28.8777L33.8422 38.3252C33.2394 38.9279 32.4975 39.4148 31.7092 39.7394V45.0369H34.2247C35.6042 45.0369 36.7402 46.1729 36.7402 47.5524V48.9087H48.6915C49.0045 48.9087 49.2711 49.1637 49.2711 49.4883V53.4295C49.2711 53.7309 49.0161 53.9975 48.6915 53.9975ZM46.2108 12.8228C45.6776 12.2895 46.489 11.4665 47.0339 11.9997C55.3337 20.2996 55.3337 33.7579 47.0339 42.0578C46.5006 42.591 45.6776 41.7796 46.2108 41.2348C54.0586 33.387 54.0586 20.6706 46.2108 12.8228ZM17.7873 41.2348C18.3205 41.7796 17.509 42.591 16.9642 42.0578C8.66435 33.7579 8.66435 20.2996 16.9642 11.9997C17.4975 11.4665 18.3205 12.2779 17.7873 12.8228C9.93947 20.6706 9.93947 33.387 17.7873 41.2348ZM13.9619 45.0601C14.4951 45.6049 13.6837 46.4164 13.1389 45.8831C2.72925 35.4735 2.72925 18.5956 13.1505 8.17438C13.6953 7.64115 14.5067 8.45259 13.9735 8.99741C4.00437 18.9549 4.00437 35.1026 13.9619 45.0601ZM50.0362 8.99741C49.4914 8.46418 50.3144 7.64115 50.8592 8.17438C61.2688 18.584 61.2688 35.4619 50.8592 45.8831C50.326 46.4164 49.503 45.6049 50.0362 45.0601C59.9937 35.1026 59.9937 18.9549 50.0362 8.99741ZM41.3422 19.4302L33.7147 27.0577C33.1814 27.591 32.3584 26.7795 32.8916 26.2347L40.5308 18.5956L39.4179 17.4828C37.3545 15.4194 33.9697 15.4194 31.9179 17.4828L31.6049 17.7957L34.6536 20.8444C35.1868 21.3777 34.3754 22.2007 33.8306 21.6675L30.7819 18.6188L30.0052 19.3954L33.0539 22.4441C33.5871 22.9774 32.7757 23.8004 32.2309 23.2672L29.1822 20.2185L28.4055 20.9951L31.4542 24.0438C31.999 24.5771 31.176 25.4001 30.6312 24.8669L27.5825 21.8182L26.8058 22.5948L29.8545 25.6435C30.3878 26.1883 29.5763 26.9998 29.0315 26.4666L25.9828 23.4179L25.2061 24.1945L27.084 26.0724C27.6173 26.6172 26.8058 27.4287 26.261 26.8955L24.3831 25.0176L23.6064 25.7942L25.4843 27.6721C26.0176 28.2054 25.2061 29.0284 24.6613 28.4952L22.7834 26.6172L22.4704 26.9302C20.407 28.9936 20.407 32.3669 22.4704 34.4303L25.5075 37.4905L26.2378 38.1049V33.6652C24.6149 32.1234 24.5802 29.5616 26.1567 27.9735C27.71 26.4202 30.2255 26.4202 31.7672 27.9735C33.3437 29.55 33.3089 32.1234 31.6861 33.6652V38.4527C32.4048 38.0933 32.7525 37.734 33.3205 37.1776L32.2309 36.0879C31.6861 35.5547 32.5091 34.7316 33.0539 35.2649L34.1436 36.3545L34.9202 35.5779L32.9032 33.5609C32.37 33.016 33.1814 32.2046 33.7262 32.7378L35.7433 34.7548L36.5199 33.9782L33.4712 30.9295C32.9264 30.3962 33.7494 29.5732 34.2943 30.1064L37.343 33.1551L38.1196 32.3785L35.0709 29.3298C34.5377 28.7965 35.3491 27.9735 35.894 28.5067L38.9426 31.5554L39.7193 30.7788L36.6706 27.7301C36.1374 27.1968 36.9488 26.3738 37.4936 26.907L40.5423 29.9557L41.319 29.1791L38.2819 26.1304C37.7371 25.5972 38.5601 24.7741 39.1049 25.3074L42.1536 28.356L42.4666 28.0431C44.53 25.9797 44.53 22.5948 42.4666 20.543L41.3422 19.4302ZM30.5384 34.4303C29.5415 34.8592 28.3939 34.8592 27.397 34.4303V45.0137H30.5384V34.4303ZM30.9558 28.7965C29.1938 27.0346 26.1567 28.2865 26.1567 30.7788C26.1567 33.2711 29.1938 34.5346 30.9558 32.761C32.057 31.6714 32.057 29.8978 30.9558 28.7965ZM34.2131 46.1729H23.7339C22.9921 46.1729 22.3777 46.7873 22.3777 47.5292V48.8855H35.581V47.5292C35.5694 46.7873 34.9666 46.1729 34.2131 46.1729Z" fill="#C9C9C9"/>
<path d="M15.8862 52.8383H48.1119V50.0563H15.8862V52.8383ZM48.6915 53.9975H15.3066C14.982 53.9975 14.727 53.7425 14.727 53.4179V49.4767C14.727 49.1521 14.982 48.8971 15.3066 48.8971H21.2185V47.5408C21.2185 46.1498 22.3545 45.0253 23.7339 45.0253H26.2494V39.4612C25.6814 39.1598 25.1482 38.7773 24.6961 38.3252L21.6474 35.2765C19.1319 32.761 19.1319 28.6458 21.6474 26.1304L31.0833 16.6829C33.5987 14.1674 37.7139 14.1674 40.2294 16.6829L43.278 19.7316C45.7935 22.2471 45.7935 26.3622 43.278 28.8777L33.8422 38.3252C33.2394 38.9279 32.4975 39.4148 31.7092 39.7394V45.0369H34.2247C35.6042 45.0369 36.7402 46.1729 36.7402 47.5524V48.9087H48.6915C49.0045 48.9087 49.2711 49.1637 49.2711 49.4883V53.4295C49.2711 53.7309 49.0161 53.9975 48.6915 53.9975ZM46.2108 12.8228C45.6776 12.2895 46.489 11.4665 47.0339 11.9997C55.3337 20.2996 55.3337 33.7579 47.0339 42.0578C46.5006 42.591 45.6776 41.7796 46.2108 41.2348C54.0586 33.387 54.0586 20.6706 46.2108 12.8228ZM17.7873 41.2348C18.3205 41.7796 17.509 42.591 16.9642 42.0578C8.66435 33.7579 8.66435 20.2996 16.9642 11.9997C17.4975 11.4665 18.3205 12.2779 17.7873 12.8228C9.93947 20.6706 9.93947 33.387 17.7873 41.2348ZM13.9619 45.0601C14.4951 45.6049 13.6837 46.4164 13.1389 45.8831C2.72925 35.4735 2.72925 18.5956 13.1505 8.17438C13.6953 7.64115 14.5067 8.45259 13.9735 8.99741C4.00437 18.9549 4.00437 35.1026 13.9619 45.0601ZM50.0362 8.99741C49.4914 8.46418 50.3144 7.64115 50.8592 8.17438C61.2688 18.584 61.2688 35.4619 50.8592 45.8831C50.326 46.4164 49.503 45.6049 50.0362 45.0601C59.9937 35.1026 59.9937 18.9549 50.0362 8.99741ZM41.3422 19.4302L33.7147 27.0577C33.1814 27.591 32.3584 26.7795 32.8916 26.2347L40.5308 18.5956L39.4179 17.4828C37.3545 15.4194 33.9697 15.4194 31.9179 17.4828L31.6049 17.7957L34.6536 20.8444C35.1868 21.3777 34.3754 22.2007 33.8306 21.6675L30.7819 18.6188L30.0052 19.3954L33.0539 22.4441C33.5871 22.9774 32.7757 23.8004 32.2309 23.2672L29.1822 20.2185L28.4055 20.9951L31.4542 24.0438C31.999 24.5771 31.176 25.4001 30.6312 24.8669L27.5825 21.8182L26.8058 22.5948L29.8545 25.6435C30.3878 26.1883 29.5763 26.9998 29.0315 26.4666L25.9828 23.4179L25.2061 24.1945L27.084 26.0724C27.6173 26.6172 26.8058 27.4287 26.261 26.8955L24.3831 25.0176L23.6064 25.7942L25.4843 27.6721C26.0176 28.2054 25.2061 29.0284 24.6613 28.4952L22.7834 26.6172L22.4704 26.9302C20.407 28.9936 20.407 32.3669 22.4704 34.4303L25.5075 37.4905L26.2378 38.1049V33.6652C24.6149 32.1234 24.5802 29.5616 26.1567 27.9735C27.71 26.4202 30.2255 26.4202 31.7672 27.9735C33.3437 29.55 33.3089 32.1234 31.6861 33.6652V38.4527C32.4048 38.0933 32.7525 37.734 33.3205 37.1776L32.2309 36.0879C31.6861 35.5547 32.5091 34.7316 33.0539 35.2649L34.1436 36.3545L34.9202 35.5779L32.9032 33.5609C32.37 33.016 33.1814 32.2046 33.7262 32.7378L35.7433 34.7548L36.5199 33.9782L33.4712 30.9295C32.9264 30.3962 33.7494 29.5732 34.2943 30.1064L37.343 33.1551L38.1196 32.3785L35.0709 29.3298C34.5377 28.7965 35.3491 27.9735 35.894 28.5067L38.9426 31.5554L39.7193 30.7788L36.6706 27.7301C36.1374 27.1968 36.9488 26.3738 37.4936 26.907L40.5423 29.9557L41.319 29.1791L38.2819 26.1304C37.7371 25.5972 38.5601 24.7741 39.1049 25.3074L42.1536 28.356L42.4666 28.0431C44.53 25.9797 44.53 22.5948 42.4666 20.543L41.3422 19.4302ZM30.5384 34.4303C29.5415 34.8592 28.3939 34.8592 27.397 34.4303V45.0137H30.5384V34.4303ZM30.9558 28.7965C29.1938 27.0346 26.1567 28.2865 26.1567 30.7788C26.1567 33.2711 29.1938 34.5346 30.9558 32.761C32.057 31.6714 32.057 29.8978 30.9558 28.7965ZM34.2131 46.1729H23.7339C22.9921 46.1729 22.3777 46.7873 22.3777 47.5292V48.8855H35.581V47.5292C35.5694 46.7873 34.9666 46.1729 34.2131 46.1729Z" stroke="#C9C9C9" stroke-width="0.533333" mask="url(#path-1-outside-1_309_279)"/>
</svg>
